<svg width="13" height="20" viewBox="0 0 13 20" fill="none" xmlns="http://www.w3.org/2000/svg">
<path d="M8.01937 19.5004H3.98937C3.78937 19.5004 3.62937 19.3404 3.62937 19.1404V12.4504H0.969376C0.769376 12.4504 0.609375 12.2904 0.609375 12.0904V8.06039C0.609375 7.86039 0.769376 7.70039 0.969376 7.70039H3.62937V6.05039C3.62937 4.61039 4.18937 3.25039 5.20937 2.23039C6.22937 1.21039 7.58937 0.650391 9.02937 0.650391H12.0494C12.2494 0.650391 12.4094 0.810391 12.4094 1.01039V5.04039C12.4094 5.24039 12.2494 5.40039 12.0494 5.40039H9.02937C8.85937 5.40039 8.68937 5.47039 8.56937 5.59039C8.44937 5.71039 8.37937 5.87039 8.37937 6.05039V7.70039H12.0494C12.1594 7.70039 12.2694 7.75039 12.3394 7.84039C12.4094 7.93039 12.4294 8.04039 12.4094 8.15039L11.3994 12.1804C11.3594 12.3404 11.2194 12.4504 11.0494 12.4504H8.38937V19.1404C8.38937 19.3404 8.22937 19.5004 8.02937 19.5004H8.01937ZM4.34937 18.7804H7.65938V12.0904C7.65938 11.8904 7.81937 11.7304 8.01937 11.7304H10.7594L11.5894 8.42039H8.01937C7.81937 8.42039 7.65938 8.26039 7.65938 8.06039V6.05039C7.65938 5.68039 7.79937 5.34039 8.05937 5.08039C8.31937 4.82039 8.65937 4.68039 9.02937 4.68039H11.6894V1.37039H9.02937C7.77937 1.37039 6.60938 1.86039 5.71938 2.74039C4.83938 3.62039 4.34937 4.80039 4.34937 6.05039V8.06039C4.34937 8.26039 4.18937 8.42039 3.98937 8.42039H1.32938V11.7304H3.98937C4.18937 11.7304 4.34937 11.8904 4.34937 12.0904V18.7804Z" fill="#484CFB"/>
</svg>
