<svg width="18" height="18" viewBox="0 0 18 18" fill="none" xmlns="http://www.w3.org/2000/svg">
<path d="M12.7391 17.5002H4.67906C3.50906 17.5002 2.39906 17.0402 1.57906 16.2102C0.749063 15.3802 0.289062 14.2802 0.289062 13.1002V5.05016C0.289062 3.88016 0.749063 2.77016 1.57906 1.95016C2.40906 1.12016 3.50906 0.660156 4.67906 0.660156H12.7391C13.9091 0.660156 15.0191 1.12016 15.8391 1.95016C16.6691 2.78016 17.1291 3.88016 17.1291 5.05016V13.1102C17.1291 14.2802 16.6691 15.3902 15.8391 16.2202C15.0091 17.0502 13.9091 17.5102 12.7391 17.5102V17.5002ZM4.67906 1.38016C3.69906 1.38016 2.77906 1.76016 2.08906 2.45016C1.39906 3.14016 1.01906 4.06016 1.01906 5.04016V13.1002C1.01906 14.0802 1.39906 15.0002 2.08906 15.6902C2.77906 16.3802 3.69906 16.7602 4.67906 16.7602H12.7391C13.7191 16.7602 14.6391 16.3802 15.3291 15.6902C16.0191 15.0002 16.3991 14.0802 16.3991 13.1002V5.05016C16.3991 4.07016 16.0191 3.15016 15.3291 2.46016C14.6391 1.77016 13.7191 1.39016 12.7391 1.39016H4.67906V1.38016Z" fill="#484CFB"/>
<path d="M8.71008 12.4595C7.81008 12.4595 6.96008 12.1095 6.32008 11.4695C5.68008 10.8295 5.33008 9.97945 5.33008 9.07945C5.33008 8.17945 5.68008 7.32945 6.32008 6.68945C6.96008 6.04945 7.81008 5.69945 8.71008 5.69945C9.61008 5.69945 10.4601 6.04945 11.1001 6.68945C11.7401 7.32945 12.0901 8.17945 12.0901 9.07945C12.0901 9.97945 11.7401 10.8295 11.1001 11.4695C10.4601 12.1095 9.61008 12.4595 8.71008 12.4595ZM8.71008 6.41945C8.00008 6.41945 7.33008 6.69945 6.83008 7.19945C6.33008 7.69945 6.05008 8.36945 6.05008 9.07945C6.05008 9.78945 6.33008 10.4595 6.83008 10.9595C7.33008 11.4595 8.00008 11.7395 8.71008 11.7395C9.42008 11.7395 10.0901 11.4595 10.5901 10.9595C11.0901 10.4595 11.3701 9.78945 11.3701 9.07945C11.3701 8.36945 11.0901 7.69945 10.5901 7.19945C10.0901 6.69945 9.42008 6.41945 8.71008 6.41945ZM13.2401 4.91945C13.0401 4.91945 12.8801 4.75945 12.8801 4.55945C12.8801 4.35945 13.0401 4.18945 13.2401 4.18945C13.4401 4.18945 13.6001 4.34945 13.6001 4.54945C13.6001 4.75945 13.4401 4.91945 13.2401 4.91945Z" fill="#484CFB"/>
</svg>
