<svg width="17" height="18" viewBox="0 0 17 18" fill="none" xmlns="http://www.w3.org/2000/svg">
<path d="M14.46 17.5004H2.38C1.75 17.5004 1.15 17.2504 0.7 16.8004C0.25 16.3504 0 15.7504 0 15.1204V3.03039C0 2.40039 0.25 1.80039 0.7 1.35039C1.15 0.90039 1.75 0.650391 2.38 0.650391H14.47C15.1 0.650391 15.7 0.90039 16.15 1.35039C16.6 1.80039 16.85 2.40039 16.85 3.03039V15.1204C16.85 15.7504 16.6 16.3504 16.15 16.8004C15.7 17.2504 15.1 17.5004 14.47 17.5004H14.46ZM2.38 1.38039C1.94 1.38039 1.52 1.55039 1.21 1.86039C0.9 2.17039 0.73 2.59039 0.73 3.03039V15.1204C0.73 15.5604 0.9 15.9804 1.21 16.2904C1.52 16.6004 1.94 16.7704 2.38 16.7704H14.47C14.91 16.7704 15.33 16.6004 15.64 16.2904C15.95 15.9804 16.12 15.5604 16.12 15.1204V3.03039C16.12 2.59039 15.95 2.17039 15.64 1.86039C15.33 1.55039 14.91 1.38039 14.47 1.38039H2.38ZM8.42 13.4704C8.22 13.4704 8.06 13.3104 8.06 13.1104V8.07039C8.06 7.87039 8.22 7.71039 8.42 7.71039C8.62 7.71039 8.78 7.87039 8.78 8.07039V13.1104C8.78 13.3104 8.62 13.4704 8.42 13.4704ZM4.39 13.4704C4.19 13.4704 4.03 13.3104 4.03 13.1104V8.07039C4.03 7.87039 4.19 7.71039 4.39 7.71039C4.59 7.71039 4.75 7.87039 4.75 8.07039V13.1104C4.75 13.3104 4.59 13.4704 4.39 13.4704ZM4.39 5.42039C4.19 5.42039 4.03 5.26039 4.03 5.06039C4.03 4.86039 4.19 4.69039 4.39 4.69039C4.59 4.69039 4.75 4.85039 4.75 5.05039C4.75 5.26039 4.59 5.42039 4.39 5.42039Z" fill="#484CFB"/>
<path d="M12.4503 13.4709C12.2503 13.4709 12.0903 13.3109 12.0903 13.1109V10.0909C12.0903 9.65094 11.9203 9.23094 11.6103 8.92094C11.3003 8.61094 10.8803 8.44094 10.4403 8.44094C10.0003 8.44094 9.58031 8.61094 9.27031 8.92094C8.96031 9.23094 8.79031 9.65094 8.79031 10.0909C8.79031 10.2909 8.63031 10.4509 8.43031 10.4509C8.23031 10.4509 8.07031 10.2909 8.07031 10.0909C8.07031 9.46094 8.32031 8.86094 8.77031 8.41094C9.22031 7.96094 9.82031 7.71094 10.4503 7.71094C11.0803 7.71094 11.6803 7.96094 12.1303 8.41094C12.5803 8.86094 12.8303 9.46094 12.8303 10.0909V13.1109C12.8303 13.3109 12.6703 13.4709 12.4703 13.4709H12.4503Z" fill="#484CFB"/>
</svg>
