<svg width="19" height="16" viewBox="0 0 19 16" fill="none" xmlns="http://www.w3.org/2000/svg">
<path d="M14.46 15.4902H4.39C3.22 15.4902 2.11001 15.0302 1.29001 14.2002C0.460009 13.3702 0 12.2702 0 11.1002V5.06016C0 3.89016 0.460009 2.78016 1.29001 1.95016C2.12001 1.12016 3.22 0.660156 4.39 0.660156H14.46C15.63 0.660156 16.74 1.12016 17.56 1.95016C18.39 2.78016 18.85 3.88016 18.85 5.06016V11.1002C18.85 12.2702 18.39 13.3802 17.56 14.2102C16.73 15.0402 15.63 15.5002 14.46 15.5002V15.4902ZM4.39 1.39016C3.41 1.39016 2.49 1.77016 1.8 2.46016C1.11 3.15016 0.729996 4.07016 0.729996 5.05016V11.0902C0.729996 12.0702 1.11 12.9902 1.8 13.6802C2.49 14.3702 3.41 14.7502 4.39 14.7502H14.46C15.44 14.7502 16.36 14.3702 17.05 13.6802C17.74 12.9902 18.12 12.0702 18.12 11.0902V5.05016C18.12 4.07016 17.74 3.15016 17.05 2.46016C16.36 1.77016 15.44 1.39016 14.46 1.39016H4.39Z" fill="#484CFB"/>
<path d="M7.40883 11.4601C7.34883 11.4601 7.28882 11.4401 7.22882 11.4101C7.11882 11.3501 7.04883 11.2301 7.04883 11.1001V5.06008C7.04883 4.93008 7.11882 4.81008 7.22882 4.75008C7.33882 4.69008 7.47882 4.69008 7.58882 4.75008L12.6288 7.77008C12.7388 7.84008 12.8088 7.95008 12.8088 8.08008C12.8088 8.21008 12.7388 8.32008 12.6288 8.39008L7.58882 11.4101C7.52882 11.4401 7.46883 11.4601 7.39883 11.4601H7.40883ZM7.76883 5.69008V10.4601L11.7388 8.08008L7.76883 5.70008V5.69008Z" fill="#484CFB"/>
</svg>
